<mxfile host="app.diagrams.net" modified="2024-04-24T09:14:46.939Z" agent="Mozilla/5.0 (X11; Linux x86_64; rv:125.0) Gecko/20100101 Firefox/125.0" etag="O0ieByCRcZL1xUADbyRY" version="22.1.21" type="device">
  <diagram id="tqt1dxsSRUUOvD7IVsvW" name="Page-1">
    <mxGraphModel dx="3124" dy="1906" grid="1" gridSize="10" guides="1" tooltips="1" connect="1" arrows="1" fold="1" page="1" pageScale="1" pageWidth="850" pageHeight="1100" math="0" shadow="0">
      <root>
        <mxCell id="0" />
        <mxCell id="1" parent="0" />
        <mxCell id="FN6Hzv1kKRpMUEtQNfee-55" value="" style="rounded=1;whiteSpace=wrap;html=1;fontSize=16;fillColor=#e1d5e7;strokeColor=#9673a6;" vertex="1" parent="1">
          <mxGeometry x="-910" y="-130" width="1110" height="890" as="geometry" />
        </mxCell>
        <mxCell id="nGQLxTpuzrEew2RFJWwR-4" value="" style="verticalLabelPosition=bottom;verticalAlign=top;html=1;shape=mxgraph.basic.patternFillRect;fillStyle=diagRev;step=5;fillStrokeWidth=0.2;fillStrokeColor=#dddddd;fontSize=16;fillColor=#dae8fc;strokeColor=#6c8ebf;" parent="1" vertex="1">
          <mxGeometry x="-690" y="100" width="800" height="330" as="geometry" />
        </mxCell>
        <mxCell id="FN6Hzv1kKRpMUEtQNfee-1" value="ACMESky Service" style="text;html=1;strokeColor=none;fillColor=none;align=center;verticalAlign=middle;whiteSpace=wrap;rounded=0;fontSize=16;" vertex="1" parent="1">
          <mxGeometry x="-670" y="120" width="70" height="30" as="geometry" />
        </mxCell>
        <mxCell id="FN6Hzv1kKRpMUEtQNfee-2" value="Worker 1" style="rounded=1;whiteSpace=wrap;html=1;fontSize=16;fillColor=#ffe6cc;strokeColor=#d79b00;" vertex="1" parent="1">
          <mxGeometry x="-650" y="220" width="190" height="140" as="geometry" />
        </mxCell>
        <mxCell id="FN6Hzv1kKRpMUEtQNfee-3" value="Workers" style="rounded=1;whiteSpace=wrap;html=1;fontSize=16;fillColor=#ffe6cc;strokeColor=#d79b00;" vertex="1" parent="1">
          <mxGeometry x="-640" y="230" width="190" height="140" as="geometry" />
        </mxCell>
        <mxCell id="FN6Hzv1kKRpMUEtQNfee-4" value="Workers" style="rounded=1;whiteSpace=wrap;html=1;fontSize=16;fillColor=#ffe6cc;strokeColor=#d79b00;" vertex="1" parent="1">
          <mxGeometry x="-630" y="240" width="190" height="140" as="geometry" />
        </mxCell>
        <mxCell id="FN6Hzv1kKRpMUEtQNfee-5" value="ACMESky DB" style="shape=cylinder3;whiteSpace=wrap;html=1;boundedLbl=1;backgroundOutline=1;size=15;fontSize=16;" vertex="1" parent="1">
          <mxGeometry x="-850" y="464.17" width="100" height="110" as="geometry" />
        </mxCell>
        <mxCell id="FN6Hzv1kKRpMUEtQNfee-10" value="" style="shape=image;verticalLabelPosition=bottom;labelBackgroundColor=default;verticalAlign=top;aspect=fixed;imageAspect=0;image=https://upload.wikimedia.org/wikipedia/commons/thumb/0/05/Go_Logo_Blue.svg/2560px-Go_Logo_Blue.svg.png;" vertex="1" parent="1">
          <mxGeometry x="-810" y="50" width="148.54" height="55.83" as="geometry" />
        </mxCell>
        <mxCell id="FN6Hzv1kKRpMUEtQNfee-11" value="" style="shape=image;verticalLabelPosition=bottom;labelBackgroundColor=default;verticalAlign=top;aspect=fixed;imageAspect=0;image=https://upload.wikimedia.org/wikipedia/commons/thumb/2/29/Postgresql_elephant.svg/993px-Postgresql_elephant.svg.png;" vertex="1" parent="1">
          <mxGeometry x="-890" y="420" width="87.28" height="90" as="geometry" />
        </mxCell>
        <mxCell id="FN6Hzv1kKRpMUEtQNfee-14" value="" style="shape=image;verticalLabelPosition=bottom;labelBackgroundColor=default;verticalAlign=top;aspect=fixed;imageAspect=0;image=data:image/png,iVBORw0KGgoAAAANSUhEUgAAARgAAAEYCAYAAACHjumMAABV30lEQVR4nOydCXgTZf7Hv+/MZKYtLZfnruiWJpQVbYLitS4IAk1ABdd1XQ+agni2oKvSoq673utBW1QUqqAiTRFvdwWFpKAg3oKSgCiQFBRE8eJoaZrJTN7/08LuX2ibTCYzmQTyeR4etH2Pb8vkN+/xOxhkyJAhg05kDEyGDBl0I2NgMmTIoBsZA5MhQwbdyBiYDBky6EbGwGTIkEE3MgYmQ4YMupExMBkyZNCNjIHJkCGDbmQMTIYMGXQjY2AyZMigGxkDkyFDBt3IGJgMGTLoRsbAZMiQQTc4owVkMA7eUdIdFL0A0h1Az31/aNt/ZwEQAJL9q2cka//fFEBo/3+LAIIAbQFIE4C9IGgGpbso8GNYZHdi+TzJoB8vQwpAjBaQQQfyBxC+8NTjAdIHoL9F/kkWoXBQPoCjAXoUJaQPAY4BkK27Foo9lOB7QrENhH5DKX4UPfXbQagfERKQNvv8Eb83rLuODIaQMTCHCne/w+XmikMIIZcA+DP2GZB0IAiQVUBkRYTFi3tvcqwzWlAG7cgYmDTENNKZRxicjHzbWUL/otMBcgoAc9u3jNamAd+Cwg9gU8hT9zmAj+WAzysHfJmtVhqSMTApDjuitCfL0hOQbztHKLQOBcFgAMcarSvJNAP0S0rhEz3174Jiudjg+sZoURlikzEwKUbeBZebQiJ7GmsZ6OAKikaAkLMyh/Gd0kiB1ZFN3g+lzd43RXf9RqMFZehIxsCkACa7s4AtKLqE6zfwQgKcdohsdZLNRgp8JG5e/54c8L4uL577k9GCMmQMjKHkVb9zJEH4NkpwS+bfQlOCIPSeprdfrcKi2RGjxRzOZB7qJCOMHHc80/+US7gC60UAzs44O+rKNoCuDG1Y65aX1b0uB3x7jBZ0uJExMEmgzaiw/QZexVpsp1LgPAKwRms67KBooQx9RXTXzxbPKngf99xjtKLDgoyB0QlT8fhc0vf40Xz/c64mwAhkjEoqsZuCLhbdrmfEjWuXYYuXGi3oUCVjYHSge437JgpSlbn9SQMofVGQW6/56dYLm4yWciiSMTBaYSki/PA/XSD0H1wBkHOMlpMhLkIR0P9IbtcjIU/9R0aLOZTIGJgE4e0lRfzokstIhLkIwIlG68mQKPS9UOvWR8SGlW9kAjUTJ2NgVCI4Sqwme+l9BBiT+T0ekuyRCK0X35z/L3lZ3XajxaQrmQ9GHDAFRULWqNKJnMU2nFJcnPn9HRa0SkL4SdFd/7C8cMH3RotJNzIfEIXwo8flCCPHvwlgmNFaMhjCDxSY3Lzn/ZczV9zKyVydxuKuu9Dt5PP/wg0a9ToBTjFaTgbD6EaAS3jhhOGE4As54MtsmxSQWcF0Qft2yFF6I2ux3Qigj9F6MqQUEUKoq3WJ63Fx43ursWWL0XpSloyBOZihQ5FbdN6FpO/A6QApMFpOhhSH4l2xoW5KyF2/ymgpqUjGwPyXwkGEzx9wNm8vuYsQUmy0nAzpAwVkWcIscXblHXLAm3HY+xUZA7OfvBr3gwC5zWgdGdIXCnyYnWWy/zjp3GajtaQKh/0hL2u29u5+R93jlJAbjdaSIb0hwPGSFCnjzFYusvOHj+jOHYd9qojDdgXDmq3HZJdVlRNCrj0MU1Bm0B9fq7vuyrCn/jOjhRjJYWlgcsqqRzMW61ySPpn3M6QnYSngvYfZ5J22t6H+sCzNctgZGOGBpcN5IdKQSfSUIYl8JXrqhofc9d8ZLSTZHFZnMDllVSWmo46eB0L0LziWIcP/cyRrtv6ZDhjwUeSjZd8aLSaZHBYrmOyy6rGcpehhgPzeaC0ZDmskOeC9t2X9ugcPl0jtQ9rAmAqsjMnhvI+12G4/1H/WDLrSKhE6T3a312T6AsCPBLQnBX7HXvW3c7itOyeC4Og4xtse8Xtv3Ftb+aqOmlOCQ/ZDx5qtR+SUVT8PArvRWjKkLxT04+DSFy6VF8/9uqs2rNnaPae8ZjZAL41naKlPr+rwHRNvl/xrZW3Uph6HpoG5+24mL+/stwEMNVpKhrSmNeSpO0F01/8Ys+WwS9i8MdesAXByPBNQSu5trii+KxGRqcwhd8ibXVblyP7NaYsBcqrRWjKkN1LAOyX0Qs07ihpvWU+Rb/uCO/KYK+LJxUwIBrNma0jKDX9wKAZNHlIrmJyyqjLWYpuRSbYdNyKAH/f9oT8BZDcB3U0pQoQhIUhySMqSJWnRi+HskZdnRQhDCMtm0QgVANoDBN0BHAWQXhToTYDe6f9s0TlNj998XbvhiIPuNe7RFOQNFc/gV3TLmquaH5/6QZz9Upo0fwj2M2w8l102+UFu284Ko6WkMNsBBCjgFzes/AJbtjQC2Ewp+Q6Bz34KN67T7ByAG3t5FtPK5RPgNxT0N4xl4O9NBUUDQMhJAMypXhqXAtual87Lx+L5qn4nedUet8qzv1bJ7x0frK18Sc28qUjaG5icSdUj2ALrswBOMFpLCrGNgi4X/2D24u571gL0M9Gj4BwhGQwbz/C8XACQ03NGjztDlskQEGJNJaNDKX2pucIRz4HtAeSUV/+DNVvvU9k9Ivm9dwbXL/oXVqxQKyFlSOutBO9wHs8WWNuWozlGa0kJKN6LgK3YWzHiY6OldMnyeRER8KNtJeVxLWj/2t0v8bnde15KKP4F4HijJQJMQsZY8nt/Yc1W1ZNzFtv9/PGFX4krVqT9NXbaGhjWbD1asDsPd+PyPQhdFFpS/xYh+DjU+s32tHzr3f1XsRlwsf1sC9i+RWdj2LlnCsLxgwEUAzDA6zpi+OdCELLndHts6VFNM6Y8LQW8aeuUl5ZbJNZsPS6nvGrpYeiZS0HxMQh9O+Suf5v6P1+u5dlJqsGarbms2XaeYHeOA2kvv9stKRNTNDRV2FX7T2U/3DCN42ilJlIoea2ldsrlkYBP1GK8ZJN2Bkawlwzn7aVzQHC4pLOMAPhR6tNrrvzM40+LnrqA0YIMYdh4RuAjZ/OO0qsA+ledV64toqfOojY4Ma/GvQ5oP9DWBorFLbWVF8sBb1CzMZNEWhkY/gP/KOHDxsVG60giOykhl4c8rvfCS+r2Gi0mVeDf9/cVPmz8NwhUH3TEglC8tKfCHvdBb4/pHnuEwq21HgpUNU+xT9V6XL1JG0c79qobT8wOHfkqQPKM1qI3FPg+EvA+1PrRq6WhJ+9YF/F7D8tcIl0hPztjlxTwPkt37lgu9CsKUkoGaHkLRYENIY+rWg74NsbTjx1Rms9ZrItAkKuVlv9CKM7IcjiPkvze9+jOHWmzXUqLFQw78UZzzkkXvAvgt0Zr0Q2KMAidH3LXvxgJrFkuBda2Gi0pXWBHjD1SKBxyI2uxlQL4XUKDEbzZMrNinBzw7Y5Lg9naK6e8ehl0rp1FQd8NzqocLQd8LXrOoxUpb2BYs/X4nPLqNuOSb7QWPaCATAgWhN3z7m51zz88z1c0hLc7z+HtzvsIwTlxdqWS3/uQvGzeP8SN6+LKpcs/8PQQQTj+aYAUxjmnWtx7Z065MNK4NpSk+VST0gaGtzsH8g7nSwToZ7QWraHADpaBq+Wt+rnhhrr1Rus5pBg6FHz/MecL/YseAIiSc5ofZb9vckttRUwPWtZsLeTM1jMpSI/s0c6CSISeDZAztRGuHErp68Hayr/KAV9KX2GnrIHh7c4TBYfTl86+Ol1Bge9Et+ss0eP6xmgthzJ5F1xuIudOuIOC3BHlOdrEhcnpO28rVrQlyp3e8DChNCUOW9lIePKuyvNnGq0jGimZl5Y1W/N4R8n8Q9C4RAiVnwu+9cSpGeOiP02LFoT3THHcLXpcZ1FKOwQRUsDX8tYTDqXGBe2HrTRl8gvJjOl+fvrycchP3dODlLtF4ixFbE5Z9WuEkCFGa9EQSerTa1r4x42VLbdeOpNu3pApzJVE5IDvO3HLl3PZXkdvI72PGUyAbEroqy2zKsdEVr/7g9JxcmvcpQSkTF+1cZHFQf4ze8QJVFrVkJIu3Km1RbrrLmR3O+MpjjVda7QUraDA5+KS+oliQ90ao7Vk2FcPi7VYTxY3rH0bW7yKUzGwI0qPyDlv3BaAaH4FrQFU8q+ZEKydWme0kINJGQPDmq1H55RXvQiQYUZr0Yi9kt/7r7DbNU1q9B2y7vyHC93Kp5Uz5oGpfN4RijT6Ru2dWbHcaCG/JmXOYLLLq/91qBgXCgRkCYXB2soHM8bl0IApGOgwWkMMBKbAOhfDLkmpY4+UMDDdJlUPJ8AEo3VoAQV9O7h+0dCWW+3bjdaSQRs4c1EW4verMYL87BPPuNNoEb/GcAPDTrzhBKbA+sIhcGMkS37vP5trK0bKz8w4rIprHeow5oFjAPQ0WocSOIvtH3k17keZAitvtBYYbWA4i1XIPmnMy/vyuaY1G+WAb3SwtvJ++NfGlcM1Q+ojOJzjjdYQBwxA/iZc9+CjRguB0QaGmTh9IgHOMFJD4tB3mpo+OLFlVkWD0Uoy6MCw8W0r6+FGy4gXjjOV8Y4Sm+E6jJqYtzsHCULkn0bNrwUUWBacVXkJAr64YlcypA88HxliTFa9xOHtpY/KjWuL5U3GZcQzZAXTbdK0UYLD+RGA3xgxvxbIEp4NzqwYLQd8O43WkkE/BHvJGKM1qIUAw/j7n/6XkRqSfqXFmq1H8XanGyDdkz23RnwpBbwzggvurKCbN2RWLoc4csD3IXda8VmEkL5Ga1EDs6f1D7yjhBUDX7yLnd8n/XwwuQYmPx/dJs1YQAgZlNR5NYICq4KzKkaKnvol2LXLaDkZkgDduSMk+X0L+NNGFoKQuMrCpgiEgAxlex0dlFY1vJ/syZNqYPgzLhjMWQY+nMw5NSQYdrsGh1c1fG+0kAzJhe7cIYscfV0wDxwAYIDRetTA9D72D5QyMyKN3qRmw0uagTEVWJmsyyrrQBLMOGYMrVJgzaWtL9SsMlpIBoPwr6Vi99ZXuLNG5rVtO4yWowIew4ay0itzliZz0qQZGOGyKbcxRxw7MVnzacgv4ibfRa21lUuMFpLBYNavR3hVg4e7uLTNyJxttJx4aTeM/U9dIX/i/jpZcyYl2LHnI4v/LEfY+QCykjGfZlDqDjfUXdbqnn9YHLiwI508x9CeICSPUpq7P3LYtN+dgQMBB9peKF9uW9XtK6lCmyjILpZgV6vbdXikoRg6FNnlVQ9x23bdarSUuKHwt9RW2JKV01d3A8OXT7ML5oFLUilyWwn7fVwukAPeQyL5dvbocd1lmRwPoA9ACoVRJf1A2///yP1/jgOQcMUGCvxMKLZTQr8lID9LhG6Xl9RvIqCbQJiNobP6bsc992jzQxnJ0KHgH3xmtPBh4zPp5m4h9elVFbz09KRk5dPd0Y412y5KN+MCirDc6J2R7sYlyzE+K0IjBQAG8Y5xA2WZnNBmYAhIISh66zEnAY4AwREEpKjt/zlKKOtwftduYMBspH8o2IwPGxsBrBUD675C4PP0vOpfsQKi27WYzRn8GsfRSUbLiQd2287zOUfpfZK7rknvuXT94Juu/efgrP5DVhgdkhAnVAp4JwZnVT5ntJB4yBrpFCIMTkb+gMFC/0F/BNqTUR9ntK4YNIHiYwKyrtVTtw7Ae+LGlRuwZYvRupRjPoXpPumh+ZSSy4yWEicbW2ZVDJYDvoQK/cdCNwPDmW1CdnmVF0B/vebQAyngvSM4q/IBo3XEgikoEjjLwMHc2MuK2VZuJAgZmIopUFXwLSj9TG70fSIHfO7QhtWrsGV9SgeQspYiU05ZzUIAqZ4z5kAikflNlaNK9JxCNwOTXVZ1J2expdNm++dQj9aJ4tVj3zBaSFfw9pIBnMV6EVswcDAI/gCgh9GaksAPhEZea/XMX05A3gt56lIyFQZjtuZ2K69eCWCg0VriIbTh3RHi7Pvf1mt8fQzM3e9weXnhtgfhaF3G1wFGRsXuqfYao3V0hmmkMy9rlPMxEFxptBaDkSjwcPPCOXdh+csplymQtzsHCw7nSqN1xAd9o2mK40K9Rtd8Sc32LeJyB494EYScpvXYekGBT1uerJhEd+5ImSJWrNnaw3T5rROyL5sy3dTPdj8I/mi0phSAIcA5Qv9BE9mrbzya2d3aCkK/p7/8kBIHxXLA9w2GXeLlOG5U+rhkkL6E4kW50feLLqNrPWB2WfWNnMX6mNbj6gbFdy21FafJAZ/hKS5ZS1E2WzDwj1nFV1xMGbZtb5yKGexTjR3S8b2ejcx59OlQw/xGo8Wg/TNQY+csRW+mUZbGRU1T7LpEjWtqYFiz9Yjs8uqNBPpcgepAc+uWL0aGH7/5YyNFsKOvPFaYUH4ju23n9QB6GSilbQW3q+330vaHgu4hIKF2xzqKMEAlgPDtK1+CLFBwlKAHoe3OeT0NzpsiAfST8CbvC2FP/bNyo2+vgVqQXVY1lbPY0iburnWDzxGeXeHRelxNDUz2w28+znGmyVqOqRcU2Bx2140MeeoNeeuZ+tlY0td6dnbxFc4IwzqTtKTeCdAAQDZKft8mOeD1A/gBwI8EdHuo0ftDIik/+fNKsxGmR4DQ4/ZfkR/Hjb6yDytLFgAngrTXGE/GW/1nye99QvS4HpUDPmO8sPNtJHfytP8QQtIinwwF/UJaXD+odalL04L6mhmYbsUlJmZU6c62/9RqTD0JdW+9UrxmrCG+LnkXXG7CuRNeBohuh2v/hQLfEmAuw8p1u28avUnv+aIhfLCpt+mDxuEExA6Cy5OwBdwCEiltumWUIQevJruzb5bD6U8XPzAKcnfzlGJNb341MzA55dNKWPNAl1bj6QkFPmmZVTEkEvAlNXQd+fng7dddLBSeehfIPk9XjZFAsUqSdy+PLPvPh5Tgq8gmXyAVazMxBVaes9gGcQXWwWw/60AKchoBCvWYi1KsED11U0VP/Sd6jB+N7IdffoTjetyU7HlV0hry1FlFd71mLyJNDAxntnFZ5VXrCdqXwKlOU8vSBVZ58dykuYuyZls2by+5mbXYziPQ9DYoAkpXS4G1r0QC3k8llvtcXjw3bQMzTcUlvyN984uzCoecTkEGg2iae4WC0Bdb3px/h7ysLmnbYqbAxnebNO0JgFyTrDkTgYLOb57i0Mz5ThMDk11WM5GzFD2jxVh6I/l9E4O1FXOTMtnQocg56YK/smZbzb4gQw2g9BcQsiLi93rkzWv/3bqk7pBNgGWyl5zEmW0XcxbrZQA5UaNhWymwUHS7HhE9rg81GjMmPardz0UISYfyJ5FWt8sa9ri+0GKwhA2MqXh8rjDqirUEJF8LQXpCKX2jeeEDF2LFCl3n4QtPZpB/yrm83VlJiCbu42FQ+p+Qp/45ebPPbWSWeENo21r2H/I7mE8pFswnXQ2QMzUYNSIROlucWfn3ZCRuZ83W7jnlVWuB9oDTFIe+0jTFcYkWIyXsaJddXjOWEFxF0uAgS2703SO9Mmed3vNkX1FxHnea4w5CMCxhI07xocxEFoaX1NeIDfXv0192pIRTWVLZtQtywLdb/uWHNfjlu22s2ZZLCCwJHp4SBmQA6XVMC3vEMavlgE9Xo0137gixI0pPZBikQT5q0l0O+Gq1cDxN6OHn7aUWwVGyfn9SolRGipDIdXtvGfWsnpO0vaVyJ9U8FqE00TrbIgV9RXS7qkRP/RqN5B1SZI0q7RM5Z+hFvHD8n0jChdFos+T3TROX1j+o5+qwPV6prNoHgpSvUCAF1pQFZ019MtFxEjIw2TVLnuDApHwuDEnaXRO89ZIKPefIvb7Kjn62Z0gCZy2U0k9EcZtLXrbidXlZagb1pSKCveRM3l56OwjGJLSqoVglLZtXGlw8/0tNBf4KftI0h1AwMOXTr1JgY7PnxZPgfiYhg6vawLBX3XBEzoAxX6e+3wv9eu+sypMjAZ8u6Rz5fz09SBBOuB8EdrUPNwU+FTesvE9879WFWL9ee5GHCUJxSU/GMrCUs1hvB3CsymFawgHv31pnVT6tsbz/kVe9dBxIZG6qr/wpMK/58WsnJJKfR7W1Z7fuGpP6xgUwUczUzbjYS/KFrBPeAcEo1b9LSp9v/mjOmeLs+zLGJUFCDfW7grUVM0IeVxEAtbcgOSazbU5ejfvf7Z7JOtBUMXI+KBbrMbaWEGA8XzgkoXxOqg2MYHf+NZGJk8RPu2un6nJ9Llxzx6mCvfQdlXlsKQVeCLldQ1tnVTrx8sspnVAp3RDdrp9aZlUMadsaA9ijbhRyoTC8xMOarWpXQlEJid9M25c0PbVhzdZLE+mvaosk2J0DeIdzXarn2pUCvsnBWRUztRxzX+nbEgdnGfhU29su7gEovgxtXFkuzr5vuZa6MnRO3gWXm6TjT53IWmwPqAzC/V70f/HXUO3Nmocb5FUtqQPDOLUeV1ModrTMqsiXG32q8lOruqbmr625k2GghS+CblBgfeiFqqvpTu2udbNvetAmjBy/nOn9mwlx758pVsgB34zWBdOulJa9nBJpBQ4HxI3rItKqhtXy8b2e448o/A0IrHEOkcv2Pnoca7Zul1Y1fK6lNjlCPjX1s13XXhQtVSHIjRx13Ab5E7dPXfc4Yc227Jzyqu0AeqqZMFmENvhGibMr3FqNl1U2bbTJMvBFFVuiZjng/XuLp+6JRCKVM2hD7uSHR5G+p9wBYHD8venylr2by+U7r9fslimnrOpe1mL7p1bj6QKlK5oqHMPUdI37DIY1Fw1OdeNCgQYtjYvgcJpNloGvqzAuEZHPurBlVuXjGeOSGjQ/ceuSpin2IZRCRVI0MiynW8GbwogrNEutITd6a/c9sikMIUM4e0l3NV3jNzAjrjhfzURJg+KnsNulWYla3lFyOl/sfKPNzsTZ9Qt505oLQjeco1tC5QzqaZ1VMUXye+/an2QrHvqaRk94mS2wanLDFHLXf0dBX9NiLB1hmJNOOk9Nx7jOYITikp5c4SnPEGMzl0VFavTe3fpCdeKOTEOHIvu8yffwpzvqQXBUHD2bZb/32r3/Kr0uvKrBn7CODLoQ2bmDSqsaVpC+1mXsEccOAHC80r6EoJA7o3gwCLNUDnhV3lL9Cor1nMV2TSqXneG6/7aX6HHVxdtP+Q+UbyM54ypfJYj7kCyZfNf6QrWT7twRTmiUAQOQPeHex7gev42vvCbFRmnZvJHBBTVLE5o/Q9KQVzdsFT2uZ1izzc/0Psah9MCVgORzZutkzmz9NryqIaFwDrnR94OpeNwmQsifU/hmti8FrY/EGRiqeItkKrSeAUDVMilZyJt80xIu6t22cplwzyNciLsxnm4U+HdLbcVpwcXzM95yaUiwtmJ+eMlzfwBFPMmWeNZim5NVXp1wGoa9laNeiIC+nOg4OkI488Bx8XZSbGBI4aCT4paUZMKN3vcSHYO96sZCju0RnxMhxRdi4Is246Z7rd8M+tHa8PxaKeCdRYF4MgCybSsZtsCa8MWHHPCmtG8Ua7bGbQMUGxih74CEPPr0hlK6LOxxrUpkDP79QHHOj3nvAPitwi6y5PdWNjW9f7I46+akJS/KoB/B2spHJf+atq2K4kReBDgtu7xqCWO2JpRjWFxS/ywAw8vndAUhON/kcMZVTFHRGQw7+sojTQVFT6TyIZToqb9eDvhUO7Bll1VV8C28S/lVNBUlv7ckWDt1jt4JrDIkF2lVwwaOYx6PnDDgGIZhFOVvIYT04U8vPoMSvK421zPduUNmzVaB6X3sCDX9kwDPma2Foqf+BaUdFK1g2IIT/5zSkZ8Uc8WNKxvUds8uqxrPWWzT4ujSJDV6LwjWTn1J7ZwZUpuWt+aJwXkV18l+74PKe5GRWfZSP3911Rlq5xXFrU8BMLSmU3TIhby9RPFFjyIDI/S1nZuQJn1pzcsLTVYbUi44SnpzZtusOE7vv2Ej4anBmVNVG7QMacL69Wiprfw7gHgKkh3Dn2h9GnfdpWpK+ZkZv4BimarOyeLuuxXbg9gGJn8AoYSck6gm3Yhg0fbrxqi7ObrkEiI4nI+DKA5a3IWNq/66t/bWOarmy5CWtMyquJICG5S2JyBF2T/mVqqdL7R5TUqvjIUPA0OVto1pYEyFg04jyg89k06owTVLTT/WbD0u78xrPqaUXKGwy07ma6+j6am/fxxuXJdydYYy6Icc8G0Pzqo4l4IuUtqHM9se6lZepaqwnuSe/9L+ipspCilmCqyK/IViGhjObEvZ0AAK+qW4bfU78fZjCmx8dlnVqyA4XWGXvZHA5xfsnlGZ9MJdGVIDOeD7rnmKY4zk996tsAtDzDYXO6I07tpOEb83LEm758WvMmnkchabomDR2AbGUnSBJpJ0QA6sna0mC5xw4yOPEqK49MXesN97yd5Zt34Q90QZDjmC6xfdI0u7H1XSlgB5OeeNe0Wwl/wm3nmkpf95OpUTUrEjSkcraRfdwEz/IBsgNq1EaY3s98YdMc3bS07iZKlMYfNQhMHg1trKlE9vmCFJrFiBlpUNUwAodIkgJ/KO0g95+/i4kpOFG+o3AkjZ5OAcRxW9oKMamLxI84S2sTRTpSUUX4uNa76Kq0/hIMI7SqcrbS4HvBV7b7ZnyoZkOJBFsyORTZ9fDUBpruffsVdNjjvnS0hkKtv+il+g/lBgIGOOfQ7TpYFhLDYTCNTdtSUBKeB1xZtjJXvEpTcTtGf/jz2+tPvRllmVT6gWmOGQZu+Tt74jelz9KaWKMr1x23ZONV1TE1f9JvH2kesBmpKrmLbtH2e2xqyz3qWB4QqKTgdwjObKNCIS8Lniad9j+rIS1jLwX0raUmBZeM69utZRypD+hNyu7cHFM/8E4GcFzRnh90XzWLP1iPjmUO41m2zYq26M6XHcpYFhzbbU9X0B1oQ8ro1KG2eXT/trhMouAijIREY3B2dVXCr512auojPERF72xmZ50+eXK0lcRYA+OddPmxHP+FLAuzBVPXu5rTuHxGrT9QrGbE3Zw12QSFxR05x5oOKtXii07Z9ywKfkjZQhQzstT97aQEH/ragxw1zRvbrBoXTsSMC3lwKfJqJPNwgZGKtJ1we4hBRprUcrQkvqFUcXZpdNuxiAIl8ESkit9OyMlPKi5O0lR+7fqg5Aft98vv+QEwhIT9BId0pITwAmkspZ6dUTBKgIkF8A+nMIwk9wP/0dARopsE7c+N7WRCoOak3wrfl35pw3bhRAYkZURwh9Mav4irNaG55XdEkRCax5mzUPVJV0W2e6C/aSE0Ke+m+6atCpgWFHXNYDwIm6SlPPL5J/raJrY9Zs7cFZbIoOaiWWmxm8afjkhNUlAGO2duMsVht+d9JpQv9TBwPkbADHdWxJ22PnUzX1mXaQ//0tQAQcpf/7juAobTM8X1FK1ooe17syYT2y+7mfjFIqL6v7UupfdBNntsUsOUuAHqZR4+e0fr3hHGxcHfOiQvL7XmfNA+/VTKyGUJCzAMRpYFju9ISKiOsKnRpp9Crak/I3PHofZElJZb714oybDDnUZc3W7uzYyy8Sjjv1ryBkhIrk4ocrvdsMMCE4W3A4r2v7jMN+RSMikeWhhvkvUb/37XCjL6mOasFZlc/kPrKYkghbGzv1JhmcPfyy0uDG1TE9dsXQ1nUC8DWA32koVxNYx/iz4HF1uerv3IgQkqqrl1BT7hGKEg+bRpV242TpGiVtxbMKHlZbuU4tWY7xWXnV7mtzyqs3CH0GPQdCzssYl4RgAfQDw1wjOJwNWZOqV/J25wnJFtF88+hnKegbStpy/Ww3Kxp0xQpQio8S1aYHHCJRbUWnBkZwlPTTTVECUGA1rjtNUUJvru/Jk6Do1gjr5PF/fjFxdcpgrrqxV3ZZ1W0m+7gACHkKgC61jzO0r2zW5VV7XuMnP3IFa7YmzWFU9Ljub/tLQVMbf/ODIxUNutmXkgam3ahHofMVDMUpeqlJhEjApyg0gH/fP4CzDLxDQdNwyO2aKPl9untL8nbnyOzy6vtyBlzwNWexPRhHWs4M6skDwUVC35Pm55RXb8wpq3aa+tl0z8oouuu9kt/7kJK2Qp9Ta/jCk2MeR4ibvG9qIk57Co6csbjLrVvHH8xSRNosq96q1CD518Q0MOyI0uOEjxqXA4hVia4lxMh20ePS9QqQt5f8Pq/G/Vbbsp0zW/9B4q8OmUEb+rIWa13WdVVr+TlvXM+arT30nCzsqX+Agiqoi0WsbPGEklitRI9rE4C4MwckARISmS6rKnQwMCazLR8gqfgh2EU3r42Z1Dt39Li7gdiF0iS/9z7x5tG6ZXEXikt6Zr/46QOCo9QHEEWRpxmSAMGJwp6s2pyy6q+yJ1XHVz0iDqSANyR+9ZmiW0mur/XeLHtpTINHCLlPE3FaQ0iXBQE6GBiGkpQ7qW6HYn14kzeqd23WSKcQISTm26DtBRMOeFUlqlKC8L7/LNOo0m+5bTtvT+lcxoczBMdyBdYXc6c3XK3XFOKc29tW3LEL5RP8zuQoeThWsz23FL9Dgd1a6dOQAXxxSbfOvtHBwFDQ/KRIihMKsi5WG66f9RIlB7sMpfMkT33iJT87Ibus6mL+o8ZFBIrTcGYwEELpzLwa93x2RGmhHuPLAZ/SgNmrBbvz5JitKPUmLEoXOl+YdDAw7OiJv0+KnjgRPXXvR22Qb2OI2fZ3BUM1Ny+eGXfofCzYfjYu+4k3p3MW2ysA4gpoy2AoPECuyD6vZFVOWdVftB48tHjebFAoCSNgTcXOmM+v3OhNzRo5pHPH3A4GhpMlS1IExQ2NamAEu/Pirn7IXyP5vY/Iy95QXFRLCSZHaUH2dVUNXMikzK8hQ8pBgDzWYnspu7zqPhQO0sxJWt68VmpaNKfNcMVceRAGf+VjuIjI/rUJVy/VhcJTO7UbHbdIBKloYH4SQ1sD0RqY+hfdomCc3SFP/SPayWrfEt2aZS/ZSAhSMVYkQ3wQzmz7R/frH3DFm4EuKstflkNbvrhHQUuWHT7+b1EFUrpaM10aIuSfZO7s6x0MTCpWEGi/7otSPbHHdM9pZF9MRPRxKP13JODdqZUuwe48l7PYHkrlipcZ4odSMk5wjFvFOUo1u00Vv//g30ryxnAcvSRaTaVQQ33bGL9opUsrKOksZu4gA8P2s3G0PcYj1SCbuvoOY7bxkQhiBphhny+BojADJbB1r/YzOZyajZch5Tgx217yElNQpE34xssvU4nl5itoeTT/YSB6xn6qvEZTsiAUndasPsDAMAVFx5EUfBuLm9d/3tX3uBHOS0AUOQbOEUNb39ZCD2u25uf8mLeUAH20GE8FEtqD3+gnoHgLlC6kwKK2xTgo1gNUXSE6A6CAvL8GkI+Cuino620/D0AXA1hFKbbta2YIo3LKp7+oVZgBffPp6UoSUwl256ToA0U+00KPphAc39mXD/jFEdp5I8PZuLrLxNtC/6KrFIzwZdPCOWVaFKnPKa+6gTXbJgNIViCdDNAfKcVi0VPvbvvQiXz2Ziya3XWkcOEgIuSfaKGE9GcKrKeYLNZR2LeFTIEIedpMgeVi4Iu34f98pez3euVGX9T4spzR43pKEcYCSgfwjtJRBHAgSSttQuiF/LU1TwVrr7kq0fwzrQ3Pf805JrxCCC6LMelF7NjLe8tvLOh0KxRqmP+Z4HAmpEUHjmZGOLMiy1wHBA0fZJlJal6vks5LRJiKx+cCCsrayvKrWP5ywikwBXvJb1izrTp2KL5mbGeYyCWix7U6uHi+8nipjatpaOPqtm1l259FrcB9eTXuPwLkUQCn6aq4CygQJpT+s6mZr8Hd58Z8i/+alsXzd7UZ1nbj6qmv4xyleVn2cc8RkD/rp/j/4Tg6kS8cskDcsmVpomOJHtdLgsMZ3cAAAtvKjpSBrtIgfJ2oDh0gJpb0DgHbf/3Fg5d+vZKrSRGy9Nte33X2DTLsHIeSA9bQ0vn/SVhF4SBicjgV5PnQAvqdvMn3cGuD65lIwKe0NEZUmqY43gdwuuBwns7bnbcB+FNyVjRUZFn6XOubdQ+2NjyvSQo6yV3X1Lzh3YuF/kPMTIH1Cs7SnvZA12dXcDgfI6AjQ576Tp9FpcgB79uAc0eshPq83Tla9NR3YWBolwmejIQi0vZvcICBOfABGzY05aoIUGBLZO6MTkPfhaw+MdeJFPhM9NTHjGGKRfaIy/5OQFTVGo6D1SG36/KWmZXmlicrH9PKuPyakNv1adMU+8Uht+ssCl1zjPxMKJnW4llQuOumUddpZVz+x5YtbT9LIFhbeV/LrIq+kkRmKEyRoJa27dl6/vp/DkpkEDng281EyCX7tr5RIOTi/elSO46xybtZ559VLR0Oeg8wMALXp9OTYCMhFJ3eILETb+gOkJjJkyOBNbMT1cBfU302Z7EprUkcPxRhye+9tXXmLWeKHtcLcqMvqNtc+xE9rk/Fp275Y8jtcmhtaCglr7XMqhiwp6L4Vtn9nO7L+bYPbfDW4r+FG1xHS316VelYcrWn0G/IAsZsjZl3Nxq7K4tXxqraSIA83uF8vLPvyZvXtm0xo/qFGQOJbmAoy/ZMqp6ObMO+bGCPA3QegJVg0OkBL8v1+JOCuKNQaOtnCSWTMjmcx/K/t7p0rHD5nfj1+mHB2spp4cZ1SS2VIm5cFxE9Lk9wZsU5kiBpUWQuLPu9tzc/+7eL5YDvBw3Gi4vWJa7dwUtPnyr5fW0rTb2CAvt1v2Faws6aIbcrZl0vAnIZb3d2kbCefgHQ5ZTSuQCtBcXCOCpN6kWHbeqBHxoayQUxKJU0If9ouqVYUWE0tN8eDVHgOUtXywtf2KVa07DxTJZ93CIABarHiIF4lrkkNMVuaGF9udEXDk4+74a8ak9fEJyvcpgmhokMa6qtNPwKNVhbsYiveWeygHBcxfmUIsvMRMFeelfIU7dd9SBMROmBcdtzvv7gLzbxPUtww5kHHPwL7/v78R8FVgLEqKOODiu7A6+pO2mQBKjs905pWb8ozrdCbM9dye9L6NQ/+8STJgBIaM/dNfTLkKf+KnGK68N4e+aMvIyXGK4AIP0AHNm2KQGITIA9FNQv+dduijR6496jt9RWXJldXr2MAPGWrBElv9cZVGNchg4FL/zuKICeAIJ8UNq29TW1LUgA7ADFl6L4zTfxuhiIz0yqZ++aZ+W27ayMW1NsGOa8CbfDU3eD2gHEJfN/FkaWfg5ComaPFOzOP4geV8fUIgcZlzZCf7RskkaVDMkpds4ESLFabWrhzdbcgx+6A5YredXud0FIzGptWiJJux8J3nqJkjii/yE4Sgp4e2nMPWiru+7ksKf+CzW62AJrz5xJ1RuVJK+KG4otLbUVg+WA71ulXQSHsz8zYux4ju0+BiCxwvpDoPRdE/Bhs6d+qehxrVQ6D2u2Hp1TXt325ldUw7vtnzC8yfvX1icrX1c6B8ynMLz55OF8sbOEMCiOnT6Ufgfg03DA9254w2qXvOwFZduv/HzwU1x/EcTgkzpEuMuRCL1yb6VD9Sopq6z6NpPF+mD0VvSn1ienHhsrF9LB9HxkybNyhLlSrTZVUDK9qaJ4yq+/dNA1JclOqiCgSZx9n5IgsAOg5lPPi9kG8IdDW1UZlzb4Wx76hy7GBWhqaagbrcS4MGYrn11WdUtutecN3u78kmN73K7AuKC9OgEhxWFC7hQcznfzatyf8pOmXaBEnBzw/dA0xe6QWK5WUXu/92alxoUdc1mfIx5/6/a88ofWCg5nA2EwXlluYvIbgIw1mW3VOedN/CanZlktO2Js7H5btkC8YcgrYmDdnwAoShYfByzDkDreXqK6xHIksEZB9QFyJOlbdEa8YzctmnVr26JUpTRVUNAOAaIHGhiS3CRJlKJBDvjiPoxjN33mJoQ+uf8kvdMHR2a5N9R67rIjLj+OC3HlqjrHQPb7Jsru+pgV/fhr7jw9p7xqDWex1RCCMQevNuODnCYUDFyYV+P5KqdsWqmSHqHHb7oJMSJ3KaGvtaxfFPtweMAAZF9fXZ4zbOJ6UeQeAIiiSptdILCQr885b/KXudUNT7ATb4zpfR6adct7csA7NYE5uxbjKL1fbV/RU78eoJ3VWI/s3x6+L/Xpdb8c8HUZi9cV8rI3fqTAMrXa1NHRwBxwBkMBIZlHvJRGVPlGBBvqNwUb6su0V7QPduRVVwARPVZzq1pqK16J1Yi3l+QLv//j20rKkMZJf9YycJ7w+Ls7QzecszBaw0jAJ4Y89fcKDmeXToqiu/4+JUa8+4TqqynLzVSpucthCaGTck66oDh03q6B4lt1Ua/2W3785LE8s61Sh2oOQ3h7SaHoqe/MUMSkaYqjv8Z6/gdDSYCS5IVxEUI6BIYesIJJdqBjeLP2jmQJM3QoBJN8uebjUrpa3uSNeUvG251/EBylb+pgXP5/DrG1LmtS1fBY7SKNa94ERWerLUqB28XWb7qMEfsv2WXVF1GWm6FabGwKhRHjXmMKbJ3mhP0fL79MJb/3AT0EsBbbFXqMmyitG726pIXtCgraMcf3Qf+f3Ehq/9qklvZUAi8cPzzWyb4KaMjjKm95sjJq6sScsqopgsP5gdJi/QnQ01RgeyOnfHrUtACSf60sndCzwwqGIWRe8xT7Q9FWL6zZmpNb467hzNYX2+yMRrq7gIzKKa9aGCszf3BxfS1Au4zMVwtntpWzBdZkn1/GZos3qZ8vQjvaj4MNTApE2xoLby+NHiqvBor/iJ76T6I1ybq+6k+sxVal+dxd0401n/wGP+eNc6O2WvHuwdehLc0Nz/8jap/CQSS7vGoBAbkFJDlVFQjBuSZHyaas4iu6vmLf4o2Etn6meT5mAEexo0p0K4GSNhDSwRn1sDcoBzDjLYEAo7QeNuRxRS9wPmwYMfWzPZrYQa4qegl7shp4h7PLUjVcgfWkX/8/Bd6UF8+NegMm5A8YRkDGailUIUeZHBOilv8Qe7S+CUD17WJX8OaBah0UDyFohwOfgw1MUl3VU408kbtbh5u0JjngjXqanz3gfCcAo+pRsbyjpBpDh3b8xoix+fQgf5hQ6JunYg3I251TNNaoGEpg54tLur7WveceMBFSpvWzTigdwZityUrjkZpQ0uF3emAskoJsW4cqvL3keBBo7vXJUPq8HPA1dfV91mzNYc3WaVrPGw+Ekr9kj72zXnA420MiTCOdefy11X/KOW/y8gNL3dKG8N+vjmos+cmPnp9AuEHCkDaDOar0cQzo+hhrX7Bhe8Y8DScmvTmzValz4iEJJR3tx8G3SIetgTEVFP1Zj0PuoMcV9VpaGOW8jhgXO/I/OMjjeLszkFfjCWeNdu4R+ltfP2hVFRHdrtuiDuK4iuP7Dojhmao/BDiD73NqVCMXCm2N6S4QLyaHU/O6SukE6cQn7aAtElWeNe0Qg+mnyx56j+Rf+26X3x02nmELbLr586ik06hxCrwU8tR3GWvE9rNxufZL/6MijkkXBEdpVEdJefnKt7RO68BQMgqjx6VcTutkQTvJUXOggaGkNZmCUgkKErc7duwx6fpoQYe5Y8cNARC10FaqEHbXRT17YQusIwgQM4QjiQzHsEu6/LDLnnk/Hpx9LWEIjuk2cvzhWx+L0g7OjgeewRDonugoFeHtzr4EiOpDoQYSo7wEoYhaZCtloHhVbvRGDZjMcjivSZ4gRWSZeCGqPxMF1bz8BwMkN8AwhSBsR/tx4BkMRZeHkYc4f9Rj0NDG97p06hJGOo8AcJEe82oKpZ83LZt3qeRf2+WtC19ccialSEoC7nggFmvUQERZkjR3ugNwKTuqRPOXVToQ2uTt4Jl/0AqGHpYGRoh2rZkIW7Zs7epblKEpcVYRi9DGlbdh8fyoV7qCo/QhA3x4YiKYbVHrZcnLXtAjeTbHRsjpOoyb+vjXdrAfB90ikZQrSZkMKEOsOg0dJQM9SbkSvZ3wtjj7fk+0BvzND45Gqtbljl3nS9szmP8yYEBavDx0oIP9OLB0bCSsVx7TlIbolhKTRssqp1ndY70IeVwxneqEPoOuS44aFRDSPUYLXTLzCyecoluK1RSnQ3raA64kWxpe2JXMinE5xc5c0aM+bapQ7OxNCe0D7It3kQO+r+WA76e4BjGfwsSqUaMTKR6mQb+V/d5F0VqwI0p/RwFHyu2N/geN5a2ri3RKmd+o6cePcp6ACD1q//X5z6LIbsPyeaqv0gVH6ZFJrrrbYYFysM9DfB/OBJHVnEMMG89l/37AOK7fKX8DcMAtQcjtukIO+BbEMxxvPum3+hVTI9GMSEo7NYb9a++VA76oGdFyznPeA9BYlR0Mg+7L6xuthS5GnlDaV02/rOElN1KW/C/MQmjTf8G490Khbx4S74juQd059Gw1OtRDfzz4Kwf/gnckT0wb5FzWMUFxPeyc8qo/5Y0Zt5Xrd8pzBxuX/exUoUG/sxBCo6TcpN/rNm+iUCwMe+qejdak23T35RS0JHmi1EBinLGQTgubaYCqZ6rV/97BZxhZIBgpZJ2wNPvhhunR/HoOxuRwng7gVDU61EJIR/txsIFJdi0bPst++fVKGmaNcvZgzbZ6AMd22YhQNQl2dLtSJDTaAxzr4TeMPXl5ocvkgK/LFRZvLz2CoaQu2QnK4oVGECvvsT4GhhB1z9SWLV0+vxxHb84be81cpUNlFZfcqEqDeiIhU06HHdDBwY5JL5bFUJSxZY9FTWRtKrAygt05q+3FGXUwStRkyIt1EKgamm/rslKmLIc3peI2SRLCz2y/bkzUrRFrPvkaHQvRaUa4oS5qGsus0aV6JHVvI5stLlWTByf680vhzC6rqojWhLNYhR6PeP4JQpKdn+ZnLJrd4bzoAAMT6dN7O012ygZCeuVYTlyZVVY1UXCUdMgKxttLC7MmVb0VoVCSllBFqAPVLRMZX2jt0g9DXvZC29tK8RspSewRP1sSNa0ka7b15iwDdUmgrTkEURMGU5lG9ZNJBAYRFWk/YscCchZbVc4jb89ix17eYfVlspecll1WvTISwb36nSt2DgXd1tnXD3gLyc8+FkbN+d8DOC5pyvbR02SxPUMttif5YqcXhDQCyKNAv/1XyEoP41SUpiC6/UMQQk+L9v2wZ95Uk338ZalyZS0FvNXys49HPejnr/3HrZ2VCE1BvhTd9V2HAhQOIiB6FdVrN24qniui6NqcjUhlOUOvnIhzJnxCCfmetM1GcTIIfq9CqUaQTp0WO3xwCYU/KXo6gQAmENL2oWxb3o0mgCW+61yqpvaNjkt90p+3l3Z5iN3qnr9LIpHo2e6SBcV3IbcranVNdvSVfTiuu+pqhslEDqx5Otr3+fwT24yLbrXYGXXPVTzPrwBChhDgEgB/Mda4ACwb6bQQYmcfXsXVBlMNQpJ76a8AAkSixjlFlsx/NXlyuoYwkecjgehVHvKG/2W8AcX5VCEFfDHyvRBd4s8SgqT2oXk0Wt+a3+kWqYOBkSTSZfxMqhPZV9M4pcgePS5q5n65cc1KCqxLnqJOCYUWz58TrQFbYDVJjGlCJ99qpRT/oRRt/d0UxgfMUtDFors+apwR7yiJ+u9iCDT1D867hnZqNzoYGPnturiryKUKhNIOhZ+MJhJhr2DN1i4P/CT/Wjm0wXeD1smP4kHyex8ONbiipi4QRjmv3b9l/RV0Q4un7qTmCvufmivs1zZNsY8KfrGoH4CoFRR0JigtmRe11rkwY6WNgIxJniSl0LTN6UuBTu1GZ1uk9frL0Q01BkbvbVUvwVEa1SEtPLtiuSTtmq6zjs6heFJ0u6KWPzU5nMcyZtvBpUqo6K67THbXN/76i/KzM3a0zKoYC8CQlbDs997W2vB8l6V5WbM1jxdbFqp8VhRDVT1XHSsjpgmi3Kd3py+ojlskElln5Ns0MYgat3VdAt5+DWMuupUx26K+ncJz7rsNFNomoo6B1KfXw00V9jK50dfl4SJjtvXKspesJB0dHN8KeeZ3WtlRDvh2hDasvRhAB9dxHdkjgr+iZf2iqFUkeYfzJhCi2HtcNUTZjdBBpMX5Vicslp+d0amLSAcDE3HPb0p2TJJmEMRfbrWTTOhaQ0AKOLM1ar2l9q2Su25CssI1KBAIPvfoHbHacVfd5wSI5eCvE9CoZxzi7Cmf0gg9OWne4Sy5MzRl2IKotbKHDSOc2abIczxRInJEzXOVlomqKNDQ1fc6vQKmlHZ65ZTyUBXXjjQ5aUJ5h3Oy6eYHox4sig31P4Qa5p0ESt/SWc73wfWf/yVWIinObBN4Qej0WpqCDIalKGo0cnOl4wepcc1faCd5QrSEYUhdcMaUJ2K1yznx/It1KH7fKbRbJO7nKmf0uLQ0MAwh8RkYEOrVU5COqEm78LMOOjpAgOKsPoPmxirSLi6Z/3PrU1PHyn16PahHITwKuqxlVsWp8jO3xixcb3rg6XtIJ6uX/RRlFZfG9K4Ozpy6Mrh87mkAVqsSHJ0m2e+9Zfdj14yXGn1Rf1es2Xo0a7HN1EFDZ+yR/7Mgbp8sWSZ6hS7oCN2655biLkMyOjUwonu+kbcAquELT47/H4gk9ZzAIlz34KOxGoU3eeWWS0//u7jE9UdQrAJF1NggBUQiFC+F3K7BzY9PLZYDviiZ9vZhKp8+nNu2M2ohOpPF9jg7Ymx+rLHkhQs2tzwx5SzZ770ZgBZpKndJAW9l2DP/6JbaykewZUv01vk2Jrus6hkAXcaGaQql6raFJP0MDAU+jfb9rrxkuzyFT2WYAlv8LuxqHwaVcBx3NW93/kFJ21CD6+Omj+ecIfZoPTuBczGRgI7fW2G/VPS43scWb+zbDUpJlvnkxxR4UffKPm/yQ0pEyJvXSi21lY82TbH/DhRTE7i92xJaUndqcFZldat7nqLYM/75Vy8ihFygcr74ISrPnSh6a65FZ1iGRrUVnT5AMtiv0vEmiVLSdSqHLhADX/wSI7Wl5ggO5yzWbFV2IP3yyzR0zVhvy/pFltAG37WU0jf2e1tH+/fZQkHnhtyuieISV+GeKY56pdpYs/WYvJqGdwBEjXD/LwT4S075tD8pHb+Npgp7VchdVyT5vXcDdBWiO+fJoFhNgNmhbatLWmZVnCQ21G9WOpfgcBbxHzZWx6MvUShIzBVipxCa7BjAhAkunh/VraXLQ7rcas9XhKC/Lqp0g65umuKIGmDYGXnVnvUgOFEfTV1A8UFrQ70z7K5rVNOdHeHM4VhYKNrfejkgNARKdgNks+ipU3WuxBZYe+dMqloGkIFxdm2VA2suaZk1NWqKzWjwxSVHg7SXqu0JEA6gLZSQn2S/1x8J+FRVHM0pq5rEWmwzkp2eVBLCDwUnn397PH24Dxq7Z3/o/0WP8sV60upx9Q+7XV2ewURzTV4JpJeBoUA/DB2KqFeVnfajPgKSXANDcHaWveQrrqDo5mBtZdyHj/IyV4sM+LSSw1514/E5Ay5oMxBqKixkseaBr3ar8TzVOqvi3rjzIu+/QdPsSnvAAOQMu/IfrNl2nybjxYn8xgtr4+2T9b5/JJj0Mi6g+D68dXXUnDtdWnbR44rvU5oCEJDuJtMJcR/kRfy+mDcqOmHiLLYnelS757Jmm2FOVt0mVY/IGXDBKpXG5b/wDHBDdnnVx/w1dxpWF4g1W7vnTnzkVaOMy37ifp4IQx36SNERQt/F+uiO/10aGIL0vKomLE6It4/U6P1CHzXKiBAyIae8aj6GDUtugv4LrmVyp3vuZAqsbq1uWAhIgfD7we/w9pIBWowXF3e/k5VTXvUaIcTIKpNBUWxVU5J2hA5adCUU4mKuoLs0MGG/dyNA068QG0Whil5xL2l14KLcMX9fytuddrZvke5RtYLdOTDv3IvfJhT36LDv7yY4Sld0q2l4MNteonuNIKbAymeXVd2WlxfeBhCjP6ivYvnLcfkv8SPHHQkQs36SdGL53JgrtS4NTKRxbQgUUdMnpiKsY0Lch7yip34LAFWHrVpCgOGCw+nOmVyzIbus+uq2D47Wc/D2klNzpy95nnc4VwNkqNbj/4ojGdDbOEfp+p6PLHnS5HB25bCnGt5eekROedXkbuXVfs5iexDAEVrPESdya6j1nrh7MYx+mfX0IyzLe96N1Sjqkjxn5GU8O3rid0Aa3c9TrGyqsEctet4Z3asWz6QMW66PKHVQ4GeOibwoB7y+1k3rFoXdrriTgbEFVhNrsQ7LKi69mDIYBbTf1BhBBJS+HRLZpVgxbyXd9PnH4cZ1cXsqCw5nX9ZsHcOYbU4CxP0y0RMKfNg8xR53LaKc66tuZ/vZ0u1lvrxpiv3cWI1i7vlzqz0vEoJkZyhPhGZp6bwjg4vnx3W1ydtLigVHadQ6zEZDgbZt60cCL29tWvj8VoB8u8+HhLa05xYmyAbFkci3FfCF1gGE4KT2LSOBigTUurOTUvpxRJDXSAsXbN1/g/QjQIMEhND2yGLaHSDHC8XjCsEwbYbRBiCm57BRhDetubX1yanT4u2XW+N+nYDE5UtkNJLfe1uwtvLhWO1i7vXFsws+ET5sTCcDk2saPmFkcPH8N+PpxBB2JYCQ3nlCEoEAhQApFEUOgqNUcacUpRchZBQrcqPYJJYr1pNI49p31PQjIJ0VEUxpIgGfonCi2A5Id9/zkRaCkkmEiVwTb59W97xWCtTooyjDoQ4FfpH83rhvXnNGjzsSgP75abRFlOTdnylpGNPAiBt9HwJUneuzQRCQC012Z594+zUvnHNnKhz2Zkg/ZETqI42+uENOJJkZlmxPYw14W172RodC950R+wfb4o0gQhdqoSqZEGB43J2WvyxLfm/U5NcZMnQCld31s9V0FBzO+J9TgwkF1vxHaVtFllNsqH8vIUUGIDhKVF39RQK+lCgjkiGdoF+Knnq1zppnaixGfwI+xfZAkYGhYN5Nv+hqMkRNr1Dom02gULS/zJAB7TWY1r6kph875rKeSqPWUwfqiwS8XyptrWwF46n7GhQfJqQr+ZwiOEri945csQKhjav/pYuiDIcelO4W3XWPq+nK/mHkmGTXkE4QKQTBKfnXKvZfUny4FPF/vkC1LIMgZpuqmBRx+SuvA/Rz7RVlONSQGtc+Kgd8qkJqBP54I2Om4ofibXHKsLgi+BUbmNYt7cvApCTI1grObLtYVceNq2low8opmgvKcKjxmeh2qXJtYM3W7iDErr0k/Qht9MW9yFBsYOQl9T8SSubGrcpACHCmUFwafxrN9rIb97+T5kXoMuhLSGYiF8gBr6pSuazZOrQ9UVgaQbasccfbJ67795Bn3v2giFogPdWgJ58YtR5RNOTAmqSmWjwsoe11oFahPQwifZAkPNVy8yjV/mGsY4Lq59IY6JqQpz7unzdOA1P/HQhVdWJuFEKfQVep7duy/Lm5FPTO9LtBS2kkUHglXqoKuV1nNz1x02+apthPb5pi7x/y1J2RFo6OFN+IsytiFq3rCsFR2otDJGbJl1RC9q99Vk2/uCNVBLvzj7zDmU5+MZGQu66f6KlX/eBmP/HWo1yI+5u2sg55fgHFdgDfMqBfBj313vYzC8Kvh/uZLqseZhWX9DeNKl0NIGr9KAOJtPrX2cO1tyxT1btwEMm77sGFAM7XXJl+tLYsn3ucvHBB3IfZcSc2CoW+eZ/flws2kfSKyYRhR1x4PTz1U9UOEH7k1tvY8upzCUi6/MxdQ+nqkLj1ESxfsRGgOQQklwK5+yOXu+2vj8xnO0oEKkfaV7gRE2EYyvIUkOWI1Cp5nm/dX9M71PbwAdhF2pOTkT2U0J85Qre3LJm/V4281ob6Ddzo8TcTSlV5xuqN1KdndXiKSuPS9ovNb9+yp5NxAQVeVmNcoMbAYMUKMOff8e8ImzYGBhzX41IAqg2MFFjbKnrqbxXszqQWp9eBL1qXzh8aXlIX88MvelyqJ0m4BkyEvA+itmySrmyOPDvj7kQG4B3OS7WTkxxEd91ravuqCrIKLnW9rnZCgzghr8ZdkcgA4ub1bkrJv7WTlGzopnCD649KjIvRENBUTB/5RavbdXbIXa/aVYO1FGUTkHRbvTTJAZ/qFZsqAyN6XGsope+rndQYyDTeXmJT3X3jatpSO8UJtIcRpOTrNRqS31fXusSlKALWSFiz9QgQOsNoHb+GAjta1i8aE/a4vk9kHN7unADgSO2U6Y8skXlywKfqKh6JhImL2z6brravQRDe7lS9TcK+QMjmllkVY6SAV/UNglHIfXqpfkiSBTv28t9kl1W9nlJZ6yiaw43esfIzMxRXk+wM1lJk4sy2hFbRyYYCYXmZ67FExlBtYAS/byGAlF9u/xpCyF85e0n3RMaQA77twVmVDwJIqxWcKeuE5BaWiwdKSfcad0nO0CvXEaIuSFUvKBu5NzSzUlH2tmiwBQNHAET3Cgsa85ToqfMnMoBqA9O0aEEYBOmW2oAzWawTtBio5ajmKynoNi3GSgYMMJZ3OI1K+H0ApoKTWcHuHMRfW31Tbo3nzbzpDTspiCvVkstT0Ddbnrg1oTf4f8ka5bxai3GSBsWO8JL6OxMdJqGMrUKxs4gf5VyTThm5KOiOlplTzZFGb8KrL9Zs7ZtdXr2MAH21Uac7QSngrRAX182WN6/t0hdFC9q3BH1tR1NCfguggDXbTuTM1iIQat7/Js/Tc/4E2QPQe/bOnPpEpNGb8KVYXpXnGjB4KqUzJB+E5PfeGaytTLg6ZsI/cF6VZyIYPJ1mv7x/Bmsr79diLNZsPTZ7Us2DhNISVdf+BkCBnwnoRoDsokAzAZpAabMsoVl6u76l3dt2322zDCC8/2+2bfGx30+m7W+Ws1/BM4TtRkB7AqQnBXoQ0N6gOAaEHJVOL57/QoFv5a2rzw8+ersmlU1NDzw9JEs4YUU6fT4A7GqZVdFXDvh2JTqQJj90Xo37daRX2YW9LUsXnCgvnrtVqwGzy6Y5OIvteYCk1DI/g3Io8GlwVsWf5YBPk61v21Ywa9L0VQAGajFespD83nuDtZV3aTGWJm+YkLtevVeWMXTLGn55mZYDBmunukN/MF+YjlfYGdr/0b6TPPPsWhmXNohl4PB0My5odyz1PafVWJoYGNnvXQwgrSoPMAwm8o6SuAvlR0M82/Ke1LjmYlD8pOW4GXRFBMX8oGfe0Fb3/IS3BL+Gt5fepOV4yYBS+m7Y40roSv7XaFL0nO7cIXGWoiDT+9h08lLM5czWK2SZeZFu9u7RalDp04av5ON7Pc8fbZEpyIlk35lFhtTEF/LUXRCsrZxFA2tVxdp0RXZZ9V/YI45JO38p0eMaJwd8mh0daHbwxJptpuzyqvUE0LzIuZ5Q0KXNT/3djo2rNd/asGbrMTnXT3sYDONMxwPPQ5jtUsD7qLi47hE9btNYs/WInLLq9SA4WuuxdSRCQK/fM8WhadkeTVYw2LeKifDmoh9I72P/otWYyYCAFLA9j/pOWtWwWuux6c4de8WG+n+D0CVcgc0Cgl4AsrSeJ4NCKN0UafSWN7//7NXSy3Pep7t+0CXPT+4d9c+B4Aw9xtYLSsmLTRX2v2s9rrZXZ8PGM3ljxn0HpJXlblvGfN+0aE4fLH9ZcbZ0NQjFzn78KOdyAL/Vc54MHaGgb0UWz72oZekLCfu1RCN3uvsyQknaJcgPuV1DRY/rXa3H1WwF084WL2XN1hym97Hnajqu3hDkchz3Y/jThoRdwqMhN/p+kQPeZ0ivY3cxvY4ZAJLSzmaHAnsALApt/uJf4QVV/wytXhbWczLT3x4809Tjt6/t9xNKGyiwOuh5/p/Y+b3mxwSaO/+wBbasnPIqDwhSKqZEASFQ5qamZ298Euv1z/XNFVhZxmIdyFpsY1iztYSApGKKgnQkAkrfCzV+4ZLdz70gB3xJySHNFlh75kyq+hwgqROoqZBQ6JtzxL9fvVKPsXXxLswZeRnPjr5yFUCK9BhfTyS/98ZgbaWqQlqqyc8HXzj4NNZsG8OZrWdSQk4lwFFJ1ZDOUHwlMXSJvKT+Y0KxMtTg+jap8+fbSO7k6tcIoenkbNoOJXRB8y0O3fID6+a+zH/g/z/27j44ivKOA/jv2b3cmTeBgBptscLhG9SLtI3oOEo0kCCT6jBUsTaEATrYhJeZmhx9Ga3TsQ7FxNGqXNBWbDkUreNYkQp3F19QW61Eyd34EkgOUCl6UjyjyV12s7u/TgKpqKlmk33u2b38Pn9q7nm+dzl+eXb3eVnmeWX/g7za56i7d0fwjL6WoLjtDcqWSCf/8IYFBkA9A3aJsBz21gEMnwDERz+rn2fJtP6RcldWl3sqalpEZhgpJbT5B2p4i+UPOAZxKzCS15efX9f0FgDYYgWvGZoOzem1FXWic8DAJus1ExGM0wDgfJhdNiXHc+aZMoPxiDAOGJ6MwNwMwCM6p8Xw2F6/qBzfPPyoIuMR2PHwhwAYZ4y9pfS+dwh27RKds/97XpBf1/QyAIx8MzNBBqZo3HvjXDh4kFsfXBdgFa5aXwVTZj7Nsw9e9M7omlSmL5WIs1QudxXMXfQEY3C16Cgj0NUX2VLau3NzB89OrH2K9CXqay373JXVFzBg03n2w4NUVDxXmlbyurY7zPUXQJxJLr/aWzBv2cuMwaWis4zAR0o4eKkSCnI/7I777NJ0wL9y4HrZeVw5Xt9W950vVMNZJU5aak84k72+U/Lmr9oOAOeJzjIS2v62VWoouDcTfXEvMHo8ltA1KHPawfnHnewBNehesWaB6CDEPvJrG9c7tbgAYHt6w9rHM9VbRtbHpH5RcVjrbLs7E33x4PFMvk9etprmqRDIrWu8DhmrEZ1jpLR4zJJ9XoYrYwvwlFDwtwgg9HHiKJyeO6MqInt93xIdhIghe325BXeGfu+aWrKF971LfvDRdMCf0bPlM/ZBYfIjXZLYS7J3YNNtR02lhmOLIie4Siuq9Hj0KUwmLNvegdif5PUV5NU2Pc0YWwzMocUF4b1UwF+FyURvJrvN6IeldUaPuLy+bqmo+KpM9msVBjAxp7Rioez1narlq8/Cu++KjkQ4k6f6xufXNT3DGMwWnWUUtN59sYVaS7A90x1nfI+S1Dtv3gcA72W6Xwud6ZpW8it3df01ooMQ/vJWNt0LznwU/T8IsKrvgYbnRfSd+eHesRXX70tFxdc6bKf1L3D1uq6Uzr7wWW13eFTHiRKbuvVWyJ1R5ZeKin/u5O8pM4zgZw2VNwvrX1TH7nUPlnvckx8HGNiEyal69M7oDalm/zbRQYh13DeuK/Wc870/AjDHTf//Iny7J+CfZWRoRflQhN2w0p/ddkCe5muXiooXOfgvhLs/v6dysU+PR1/FZML2h8uTr5f7s6aF7rNnPgWMTRadZZS6tZbN8/peaxF6+qjwf9iFTeEdwGCe6BwWaJMQhzweVGdSIUps2IeyMQMZDBxmNnwMsBDQzMFvTAYGZs/pPglMbmKOAIWMDf+9A2Ke2cWbiDiOmbifiIx93fu40LmPoT/HDFz3qb/S8i0wTecQHUAurzk/b371qwCmv+yEkKEg7kg1r63W41FLT0oYCeGVGg9E/yNN9b0jTyy+zg4FjxAn00B+qKdh7nWYTNhiaY7wAtNPa43slb0+TSoqLhedhRDnwn+kA/X9xYXr5vVm2KLA9NPy1ZfYuXP2yqBXQPZtoEQIbx2pgH+uEY+J24lxCPY5DGzXLlDqyx5FQ2oUHYUQp1FCwXo9HrPdkcX2KTDHpTbedBcCcD0+hJBsIkksqO6LbRedYyi2KzBGPNaTDjTMB8SMr5sgxGEUxozfdN9bvxwORi0/08gKtrkHcyJMJtJ6PLbdVVpxMQP4tug8hNiQrsXbqnt+t6QZkwkuR+BawZYFBo4VmS5VfX+T7Lt4oqTLjjrnlxDOUOuM1qab124WHeSb2LbADDh4EDSpIOQ5a/r1wGCS6DiE2MQTPbfX/FJ0iOGw3T2Yr9j+gKHFd/8YAD4RHYUQ0RBgXyrQsEZ0juGy9wjmOK31uQ89U2e8ABNPX2h2LQwhWQPhmXRzw4/0eOyw6CjD5YgC009tbfm3fN6MiDT+9DIAulwiYwpq8bb6nttrVmMyYauJdN/EeWt/7nnGU6i6osDgXLFBcA8AG+ruvcYQTX8JkLEUA1BMvw4gCczkrxFRBYAes30B9L8vppl8kQ6IpvcwRsbSx46PNYt9ghIz9chWMvSUhEN/9gZj1wDALeZzWAcB/9pdX7lIZIaRcl6B6R92rb7tgryzZu0EgDMEdN+udUY3pZv9NON4DHBN9ckFa+54UNelJYIivJEKNFTacZbucDjmEulE+NrzH+mTJzyZM+mc+cBgYuY6xmiq2V+uhrdEMtYnEcpIJrC3/Y2n5MvLJ2V4uoSCAH9IB/xL9XjMsQ84HDmCGSR7fafm1TbtBAYzefeFCLF0c0O5U/+SkFGaPh3ctfdf61FTGwDYKVz7QuzS9kcXpANrhWzUbSVHjmAGYTLRo8djj8illX0M4fvAwM2nI2xPN/uvoOIyhh05AvqOh97Wz50VyRk/6frju/tZDgEOpff9c4668eZ/8Wg/0xw9gjnR+Ma/L9WlnE082lZCwcvUcPBlHm0T5xl3187VhiHdw6FpQwkFL1bDwd0c2hbC0SOYE/W+uzcqjz8lRyoqvsy6VvGIohxaqD5wm+OHqsQ6WkdsT85Fcy4BYFMtbLZL64z+VHmsKWRhm8JlTYGBox+A1hp5TvaWtEtFp80GgPxRtqjoHdGq3vWrn7MoIckSmEwYejy2zVU6dwoD9t3Rtqfp2v1qeOs85bHG161JaB9Zc4l0opMql5wkLVt5u3zok5tG2oYeb1ueCqzlcslFskfu+sh9LheuHOHLVa0juia90X+/xbFsIysLzKDc2juqXdMu3Gh2NKOhvCndUL6cXzKSLSSvz51X1/giAzbL5Evf793/5qK+DTe9wimaLWTPJdIQtNZIDMqWvONyoZlZkFpf5C9X6fFYimM0kiUGNthmbL/LW2JmIt6nSjh4Zd/Wxjc4RrMF+6+mHiX113Oe1DqjSwHg6HB+XtO67lFDW47wT0ayhXrg7ecRoGU4P6tp7E9qePMUNRR8i38y8bJ6BDNIa420uVzS3YaByvGnTEO+bwTYqTTfsgKTCbPrbchYdvQD0PW+F3OmzVwBDHKG/BnELi0eW5pet3idHo/Z4syiTBgTBaZfX0dU11ojL2HZ7LBLHnf5V5cY4O7upx+Zg3tCqqiMxLnwwJtdLu8FslRUfMWX/lcaAP+c2vXQT9SH7xpzc6my+ibv/+OpXHyGu2LxHgA4dfC/KaFgjRoOBsUmI07mqayZ4K6oTgB8PorJMWDBx/6Kv4lNJk7W34MZihIKHk61bL0IATcAQjcCfKzHo9tE5yLOpoQ2J5nBVhy72obDRseeqrFcXEj/NeJVS7+TW3vH9aJzkOxR2LSzTvKWTBCdgxBCstqYvEQihGQGFRhCCDdUYAgh3FCBIYRwQwWGEMINFRhCCDdUYAgh3FCBIYRwQwWGEMINFRhCCDdUYAgh3FCBIYRwQwWGEMLNfwMAAP//TBwdoJXrh74AAAAASUVORK5CYII=;imageBackground=#000000;" vertex="1" parent="1">
          <mxGeometry x="-661.46" y="210" width="70" height="70" as="geometry" />
        </mxCell>
        <mxCell id="FN6Hzv1kKRpMUEtQNfee-15" value="Client" style="rounded=0;whiteSpace=wrap;html=1;fontSize=16;" vertex="1" parent="1">
          <mxGeometry x="-690" y="-310" width="800" height="60" as="geometry" />
        </mxCell>
        <mxCell id="FN6Hzv1kKRpMUEtQNfee-16" value="" style="shape=flexArrow;endArrow=classic;startArrow=classic;html=1;rounded=0;fontSize=12;startSize=8;endSize=8;curved=1;exitX=0.5;exitY=0.054;exitDx=0;exitDy=0;exitPerimeter=0;fillColor=#f8cecc;strokeColor=#b85450;" edge="1" parent="1" source="nGQLxTpuzrEew2RFJWwR-4" target="FN6Hzv1kKRpMUEtQNfee-23">
          <mxGeometry width="100" height="100" relative="1" as="geometry">
            <mxPoint x="-290" y="90" as="sourcePoint" />
            <mxPoint x="-290" y="50" as="targetPoint" />
          </mxGeometry>
        </mxCell>
        <mxCell id="FN6Hzv1kKRpMUEtQNfee-17" value="ACMESky API" style="rounded=0;whiteSpace=wrap;html=1;fontSize=16;" vertex="1" parent="1">
          <mxGeometry x="-520" y="130" width="600" height="60" as="geometry" />
        </mxCell>
        <mxCell id="FN6Hzv1kKRpMUEtQNfee-19" value="Bank Service" style="rounded=0;whiteSpace=wrap;html=1;fontSize=16;" vertex="1" parent="1">
          <mxGeometry x="-570" y="490" width="120" height="60" as="geometry" />
        </mxCell>
        <mxCell id="FN6Hzv1kKRpMUEtQNfee-20" value="GeoDistance Service" style="rounded=0;whiteSpace=wrap;html=1;fontSize=16;" vertex="1" parent="1">
          <mxGeometry x="-425" y="490" width="120" height="60" as="geometry" />
        </mxCell>
        <mxCell id="FN6Hzv1kKRpMUEtQNfee-21" value="Prontogram" style="rounded=0;whiteSpace=wrap;html=1;fontSize=16;" vertex="1" parent="1">
          <mxGeometry x="-280" y="490" width="120" height="60" as="geometry" />
        </mxCell>
        <mxCell id="FN6Hzv1kKRpMUEtQNfee-28" style="edgeStyle=none;curved=1;rounded=0;orthogonalLoop=1;jettySize=auto;html=1;fontSize=12;startSize=8;endSize=8;" edge="1" parent="1" source="FN6Hzv1kKRpMUEtQNfee-23">
          <mxGeometry relative="1" as="geometry">
            <mxPoint x="-265" as="targetPoint" />
          </mxGeometry>
        </mxCell>
        <mxCell id="FN6Hzv1kKRpMUEtQNfee-23" value="ACMESky Web" style="rounded=0;whiteSpace=wrap;html=1;fontSize=16;" vertex="1" parent="1">
          <mxGeometry x="-440" y="-30" width="300" height="60" as="geometry" />
        </mxCell>
        <mxCell id="FN6Hzv1kKRpMUEtQNfee-26" value="" style="shape=flexArrow;endArrow=classic;startArrow=classic;html=1;rounded=0;fontSize=12;startSize=8;endSize=8;curved=1;fillColor=#f8cecc;strokeColor=#b85450;exitX=0.5;exitY=0;exitDx=0;exitDy=0;entryX=0.5;entryY=1;entryDx=0;entryDy=0;" edge="1" parent="1" source="FN6Hzv1kKRpMUEtQNfee-23" target="FN6Hzv1kKRpMUEtQNfee-15">
          <mxGeometry width="100" height="100" relative="1" as="geometry">
            <mxPoint x="-290.5" y="-190" as="sourcePoint" />
            <mxPoint x="-290.5" y="-290" as="targetPoint" />
          </mxGeometry>
        </mxCell>
        <mxCell id="FN6Hzv1kKRpMUEtQNfee-29" style="edgeStyle=none;curved=1;rounded=0;orthogonalLoop=1;jettySize=auto;html=1;entryX=0.316;entryY=0.629;entryDx=0;entryDy=0;entryPerimeter=0;fontSize=12;startSize=8;endSize=8;" edge="1" parent="1" source="FN6Hzv1kKRpMUEtQNfee-17" target="nGQLxTpuzrEew2RFJWwR-4">
          <mxGeometry relative="1" as="geometry" />
        </mxCell>
        <mxCell id="FN6Hzv1kKRpMUEtQNfee-30" value="Camunda" style="rounded=1;whiteSpace=wrap;html=1;fontSize=16;fillColor=#d5e8d4;strokeColor=#82b366;" vertex="1" parent="1">
          <mxGeometry x="-1150" y="230" width="140" height="100" as="geometry" />
        </mxCell>
        <mxCell id="FN6Hzv1kKRpMUEtQNfee-31" value="" style="shape=flexArrow;endArrow=classic;startArrow=classic;html=1;rounded=0;fontSize=12;startSize=8;endSize=8;curved=1;entryX=0.043;entryY=0.58;entryDx=0;entryDy=0;entryPerimeter=0;fillColor=#f8cecc;strokeColor=#b85450;" edge="1" parent="1" target="nGQLxTpuzrEew2RFJWwR-4">
          <mxGeometry width="100" height="100" relative="1" as="geometry">
            <mxPoint x="-980" y="291" as="sourcePoint" />
            <mxPoint x="-680" y="205" as="targetPoint" />
          </mxGeometry>
        </mxCell>
        <mxCell id="FN6Hzv1kKRpMUEtQNfee-32" value="Airline Service" style="rounded=0;whiteSpace=wrap;html=1;fontSize=16;" vertex="1" parent="1">
          <mxGeometry x="-130" y="490" width="120" height="60" as="geometry" />
        </mxCell>
        <mxCell id="FN6Hzv1kKRpMUEtQNfee-33" value="" style="shape=flexArrow;endArrow=classic;startArrow=classic;html=1;rounded=0;fontSize=12;startSize=8;endSize=8;curved=1;fillColor=#f8cecc;strokeColor=#b85450;" edge="1" parent="1">
          <mxGeometry width="100" height="100" relative="1" as="geometry">
            <mxPoint x="-300" y="450" as="sourcePoint" />
            <mxPoint x="-190" y="211" as="targetPoint" />
          </mxGeometry>
        </mxCell>
        <mxCell id="FN6Hzv1kKRpMUEtQNfee-34" value="Bank DB" style="shape=cylinder3;whiteSpace=wrap;html=1;boundedLbl=1;backgroundOutline=1;size=15;fontSize=16;" vertex="1" parent="1">
          <mxGeometry x="-610" y="570" width="60" height="80" as="geometry" />
        </mxCell>
        <mxCell id="FN6Hzv1kKRpMUEtQNfee-35" style="edgeStyle=none;curved=1;rounded=0;orthogonalLoop=1;jettySize=auto;html=1;entryX=0.014;entryY=0.927;entryDx=0;entryDy=0;entryPerimeter=0;fontSize=12;startSize=8;endSize=8;" edge="1" parent="1" source="FN6Hzv1kKRpMUEtQNfee-5" target="nGQLxTpuzrEew2RFJWwR-4">
          <mxGeometry relative="1" as="geometry" />
        </mxCell>
        <mxCell id="FN6Hzv1kKRpMUEtQNfee-36" style="edgeStyle=none;curved=1;rounded=0;orthogonalLoop=1;jettySize=auto;html=1;entryX=0.367;entryY=1.017;entryDx=0;entryDy=0;entryPerimeter=0;fontSize=12;startSize=8;endSize=8;" edge="1" parent="1" source="FN6Hzv1kKRpMUEtQNfee-34" target="FN6Hzv1kKRpMUEtQNfee-19">
          <mxGeometry relative="1" as="geometry" />
        </mxCell>
        <mxCell id="FN6Hzv1kKRpMUEtQNfee-38" style="edgeStyle=none;curved=1;rounded=0;orthogonalLoop=1;jettySize=auto;html=1;entryX=0.5;entryY=1;entryDx=0;entryDy=0;fontSize=12;startSize=8;endSize=8;" edge="1" parent="1" source="FN6Hzv1kKRpMUEtQNfee-37" target="FN6Hzv1kKRpMUEtQNfee-32">
          <mxGeometry relative="1" as="geometry" />
        </mxCell>
        <mxCell id="FN6Hzv1kKRpMUEtQNfee-37" value="Airline DB" style="shape=cylinder3;whiteSpace=wrap;html=1;boundedLbl=1;backgroundOutline=1;size=15;fontSize=16;" vertex="1" parent="1">
          <mxGeometry x="-130" y="590" width="60" height="80" as="geometry" />
        </mxCell>
        <mxCell id="FN6Hzv1kKRpMUEtQNfee-39" value="" style="shape=image;verticalLabelPosition=bottom;labelBackgroundColor=default;verticalAlign=top;aspect=fixed;imageAspect=0;image=https://upload.wikimedia.org/wikipedia/commons/thumb/2/29/Postgresql_elephant.svg/993px-Postgresql_elephant.svg.png;" vertex="1" parent="1">
          <mxGeometry x="-667.88" y="630" width="67.88" height="70" as="geometry" />
        </mxCell>
        <mxCell id="FN6Hzv1kKRpMUEtQNfee-42" value="" style="shape=image;verticalLabelPosition=bottom;labelBackgroundColor=default;verticalAlign=top;aspect=fixed;imageAspect=0;image=https://upload.wikimedia.org/wikipedia/commons/thumb/0/05/Go_Logo_Blue.svg/2560px-Go_Logo_Blue.svg.png;" vertex="1" parent="1">
          <mxGeometry x="-569.9999999999999" y="464.17" width="95.33" height="35.83" as="geometry" />
        </mxCell>
        <mxCell id="FN6Hzv1kKRpMUEtQNfee-44" value="" style="shape=image;verticalLabelPosition=bottom;labelBackgroundColor=default;verticalAlign=top;aspect=fixed;imageAspect=0;image=https://upload.wikimedia.org/wikipedia/commons/thumb/0/05/Go_Logo_Blue.svg/2560px-Go_Logo_Blue.svg.png;" vertex="1" parent="1">
          <mxGeometry x="-424.9999999999999" y="464.17" width="95.33" height="35.83" as="geometry" />
        </mxCell>
        <mxCell id="FN6Hzv1kKRpMUEtQNfee-45" value="" style="shape=image;verticalLabelPosition=bottom;labelBackgroundColor=default;verticalAlign=top;aspect=fixed;imageAspect=0;image=https://upload.wikimedia.org/wikipedia/commons/thumb/0/05/Go_Logo_Blue.svg/2560px-Go_Logo_Blue.svg.png;" vertex="1" parent="1">
          <mxGeometry x="-129.99999999999994" y="464.17" width="95.33" height="35.83" as="geometry" />
        </mxCell>
        <mxCell id="FN6Hzv1kKRpMUEtQNfee-46" value="Rent Service" style="rounded=0;whiteSpace=wrap;html=1;fontSize=16;" vertex="1" parent="1">
          <mxGeometry x="10" y="600" width="120" height="60" as="geometry" />
        </mxCell>
        <mxCell id="FN6Hzv1kKRpMUEtQNfee-47" value="" style="shape=image;verticalLabelPosition=bottom;labelBackgroundColor=default;verticalAlign=top;aspect=fixed;imageAspect=0;image=https://www.jolie-lang.org/imgs/jolie_logo.png;background-color:white;imageBackground=#000000;" vertex="1" parent="1">
          <mxGeometry x="-241.81000000000003" y="460" width="41.81" height="40" as="geometry" />
        </mxCell>
        <mxCell id="FN6Hzv1kKRpMUEtQNfee-49" value="" style="shape=image;verticalLabelPosition=bottom;labelBackgroundColor=default;verticalAlign=top;aspect=fixed;imageAspect=0;image=https://www.jolie-lang.org/imgs/jolie_logo.png;background-color:white;imageBackground=#000000;" vertex="1" parent="1">
          <mxGeometry x="49.08999999999995" y="570" width="41.81" height="40" as="geometry" />
        </mxCell>
        <mxCell id="FN6Hzv1kKRpMUEtQNfee-52" value="" style="shape=image;verticalLabelPosition=bottom;labelBackgroundColor=default;verticalAlign=top;aspect=fixed;imageAspect=0;image=https://upload.wikimedia.org/wikipedia/commons/thumb/9/95/Vue.js_Logo_2.svg/2367px-Vue.js_Logo_2.svg.png;" vertex="1" parent="1">
          <mxGeometry x="-474.67" y="-70" width="69.23" height="60" as="geometry" />
        </mxCell>
        <mxCell id="FN6Hzv1kKRpMUEtQNfee-53" value="" style="shape=image;verticalLabelPosition=bottom;labelBackgroundColor=default;verticalAlign=top;aspect=fixed;imageAspect=0;image=https://upload.wikimedia.org/wikipedia/commons/thumb/2/29/Postgresql_elephant.svg/993px-Postgresql_elephant.svg.png;" vertex="1" parent="1">
          <mxGeometry x="-190" y="650" width="67.88" height="70" as="geometry" />
        </mxCell>
        <mxCell id="FN6Hzv1kKRpMUEtQNfee-54" value="" style="shape=image;verticalLabelPosition=bottom;labelBackgroundColor=default;verticalAlign=top;aspect=fixed;imageAspect=0;image=https://static-00.iconduck.com/assets.00/docker-icon-2048x2048-5mc7mvtn.png;" vertex="1" parent="1">
          <mxGeometry x="-910" y="-130" width="100" height="100" as="geometry" />
        </mxCell>
        <mxCell id="FN6Hzv1kKRpMUEtQNfee-56" value="Soap/rest" style="rounded=0;whiteSpace=wrap;html=1;fontSize=16;" vertex="1" parent="1">
          <mxGeometry x="10" y="490" width="120" height="60" as="geometry" />
        </mxCell>
        <mxCell id="FN6Hzv1kKRpMUEtQNfee-57" value="" style="shape=flexArrow;endArrow=classic;startArrow=classic;html=1;rounded=0;fontSize=12;startSize=8;endSize=8;curved=1;fillColor=#f8cecc;strokeColor=#b85450;" edge="1" parent="1">
          <mxGeometry width="100" height="100" relative="1" as="geometry">
            <mxPoint x="110" y="610" as="sourcePoint" />
            <mxPoint x="110" y="540" as="targetPoint" />
            <Array as="points">
              <mxPoint x="110" y="580" />
            </Array>
          </mxGeometry>
        </mxCell>
        <mxCell id="FN6Hzv1kKRpMUEtQNfee-59" value="" style="shape=image;verticalLabelPosition=bottom;labelBackgroundColor=default;verticalAlign=top;aspect=fixed;imageAspect=0;image=https://upload.wikimedia.org/wikipedia/commons/thumb/0/05/Go_Logo_Blue.svg/2560px-Go_Logo_Blue.svg.png;" vertex="1" parent="1">
          <mxGeometry x="14.670000000000044" y="464.17" width="95.33" height="35.83" as="geometry" />
        </mxCell>
      </root>
    </mxGraphModel>
  </diagram>
</mxfile>
